<?xml version="1.0" standalone="no"?>
<!DOCTYPE svg PUBLIC "-//W3C//DTD SVG 1.1//EN" "http://www.w3.org/Graphics/SVG/1.1/DTD/svg11.dtd" >
<svg xmlns="http://www.w3.org/2000/svg">
<metadata>
Created by FontPrep 20130207 at Sun Nov 16 00:50:27 2014
 By Mac Pokora
Copyright (c) 2007 by Morisawa &#38; Company Ltd. All rights reserved.
</metadata>
<defs>
<font id="5b77ca9d15334e0cc2fd6d4538cfdf12" horiz-adv-x='1024' >
  <font-face 
    font-family="UniqloLight"
    font-weight="400"
    font-stretch="normal"
    units-per-em="2048"
    panose-1="2 0 5 6 2 0 0 2 0 4"
    ascent="1536"
    descent="-512"
    x-height="1010"
    cap-height="1425"
    bbox="-74 -430 1792 1901"
    underline-thickness="40"
    underline-position="-164"
    unicode-range="U+0020-2212"
  />
<missing-glyph horiz-adv-x="681" 
 />
    <glyph glyph-name=".notdef" horiz-adv-x="681" 
 />
    <glyph glyph-name=".null" horiz-adv-x="0" 
 />
    <glyph glyph-name="nonmarkingreturn" horiz-adv-x="0" 
 />
    <glyph glyph-name="space" unicode=" " horiz-adv-x="681" 
 />
    <glyph glyph-name="space" unicode="&#xa0;" horiz-adv-x="681" 
 />
    <glyph glyph-name="exclam" unicode="!" horiz-adv-x="303" 
d="M78 1425h158l-33 -1108h-94zM242 172v-172h-172v172h172z" />
    <glyph glyph-name="quotedbl" unicode="&#x22;" horiz-adv-x="626" 
d="M256 1425v-172l-172 -172v344h172zM541 1425v-172l-172 -172v344h172z" />
    <glyph glyph-name="numbersign" unicode="#" horiz-adv-x="1042" 
d="M981 1030v-158h-193l-47 -319h172v-158h-194l-57 -395h-130l58 395h-228l-57 -395h-129l57 395h-172v158h195l47 319h-172v158h195l57 395h129l-57 -395h227l59 395h127l-57 -395h170zM385 553h229l45 319h-227z" />
    <glyph glyph-name="dollar" unicode="$" horiz-adv-x="909" 
d="M406 1575h94v-166q173 -19 250 -114t98 -148l-135 -55q-72 149 -213 172v-469l59 -25q141 -59 209 -145t68 -225t-92 -249t-244 -133v-168h-94v166q-111 8 -209.5 80.5t-145.5 182.5l131 55q76 -150 224 -172v514l-58 24q-147 63 -216 145.5t-69 213.5t97 232.5
t246 117.5v166zM207 1055v-6q0 -145 199 -215v432q-90 -16 -144.5 -73.5t-54.5 -137.5zM692 408q0 156 -192 231v-475q90 20 141 85.5t51 158.5z" />
    <glyph glyph-name="percent" unicode="%" horiz-adv-x="948" 
d="M453 1087q0 -79 -56.5 -135.5t-132.5 -56.5t-133 55.5t-57 136.5v148q0 78 56 134t134 56t133.5 -57t55.5 -133v-148zM184 1087q0 -35 22.5 -58t56.5 -23t56.5 23.5t22.5 57.5v148q0 35 -22.5 57.5t-56.5 22.5t-56.5 -22.5t-22.5 -57.5v-148zM877 190q0 -75 -57.5 -132.5
t-133.5 -57.5t-132 57.5t-56 132.5v148q0 127 74.5 159.5t133.5 32.5t115 -56t56 -136v-148zM606 190q0 -35 22.5 -57t56.5 -22t57.5 23.5t23.5 55.5v148q0 35 -22.5 58.5t-57.5 23.5t-57.5 -23.5t-22.5 -58.5v-148zM877 1425l-660 -1425h-143l659 1425h144z" />
    <glyph glyph-name="ampersand" unicode="&#x26;" horiz-adv-x="1232" 
d="M922 143q-178 -143 -382 -143t-336 127t-132 312t106.5 269.5t163.5 118.5l-59 68q-90 101 -90 225q0 123 91 214t221 91t219 -89t89 -220q0 -182 -190 -291l-62 -34l363 -429q74 107 86 273h141q-8 -220 -129 -387l211 -248h-191zM670 1112q0 72 -49 122t-119 50
t-118 -49t-48 -115t57 -135l74 -86l82 47q121 72 121 166zM215 448q0 -138 89.5 -221.5t237.5 -83.5q147 0 283 111l-391 463l-20 -12q-104 -63 -151.5 -124t-47.5 -133z" />
    <glyph glyph-name="quotesingle" unicode="'" horiz-adv-x="342" 
d="M256 1425v-172l-172 -172v344h172z" />
    <glyph glyph-name="parenleft" unicode="(" horiz-adv-x="548" 
d="M80 401v623q0 171 115 284t286 117v-157q-104 -4 -173.5 -73t-69.5 -171v-623q0 -102 69.5 -170.5t173.5 -72.5v-158q-173 8 -287 118.5t-114 282.5z" />
    <glyph glyph-name="parenright" unicode=")" horiz-adv-x="548" 
d="M313 401v623q0 102 -69.5 171t-173.5 73v157q171 -4 286 -117t115 -284v-623q0 -172 -114 -282.5t-287 -118.5v158q104 4 173.5 72.5t69.5 170.5z" />
    <glyph glyph-name="asterisk" unicode="*" horiz-adv-x="626" 
d="M358 856h-94v203l-174 -103l-49 84l176 101l-176 100l47 84l176 -102v202h94v-202l177 102l47 -84l-176 -100l176 -101l-47 -84l-177 103v-203z" />
    <glyph glyph-name="plus" unicode="+" 
d="M1016 788v-151h-400v-399h-151v399h-399v151h399v400h151v-400h400z" />
    <glyph glyph-name="comma" unicode="," horiz-adv-x="342" 
d="M256 172v-172l-172 -172v344h172z" />
    <glyph glyph-name="hyphen" unicode="-" 
d="M66 635v158h950v-158h-950z" />
    <glyph glyph-name="period" unicode="." horiz-adv-x="342" 
d="M258 172v-172h-172v172h172z" />
    <glyph glyph-name="slash" unicode="/" horiz-adv-x="663" 
d="M631 1425l-436 -1425h-158l436 1425h158z" />
    <glyph glyph-name="zero" unicode="0" horiz-adv-x="948" 
d="M74 1036q0 170 118.5 287t283.5 117t283 -118t118 -286v-647q0 -166 -117 -284.5t-284 -118.5t-284.5 117.5t-117.5 285.5v647zM231 387q0 -100 72 -172t172 -72t172 72t72 172v651q0 102 -72.5 173t-171.5 71t-171.5 -71t-72.5 -173v-651z" />
    <glyph glyph-name="one" unicode="1" horiz-adv-x="948" 
d="M610 1425v-1425h-157v1268h-228v157h385z" />
    <glyph glyph-name="two" unicode="2" horiz-adv-x="948" 
d="M303.5 1212q-68.5 -70 -72.5 -174h-157q4 170 118.5 286t281.5 116t285 -118t118 -272t-105 -280l-512 -612h617v-158h-803v158l579 714q63 76 63 144t-18 114t-70 99t-154 53t-170.5 -70z" />
    <glyph glyph-name="three" unicode="3" horiz-adv-x="948" 
d="M747.5 1327q114.5 -113 114.5 -272q0 -88 -39 -170t-106 -135q82 -53 131 -147.5t49 -190.5q0 -178 -123 -302t-298 -124t-294 119t-127 301h158q8 -117 81 -190t183 -73t186 77.5t76 185t-76 185t-188 77.5h-106v157h106q94 0 162 68t68 161.5t-68.5 160.5t-162.5 67
q-95 0 -159.5 -63.5t-68.5 -163.5h-158q4 164 116.5 274.5t270.5 110.5t272.5 -113z" />
    <glyph glyph-name="four" unicode="4" horiz-adv-x="948" 
d="M922 223h-119v-223h-158v223h-614v144l544 1058h228v-1044h119v-158zM645 381v889l-457 -889h457z" />
    <glyph glyph-name="five" unicode="5" horiz-adv-x="948" 
d="M817 1425v-157h-594v-391q59 57 117.5 80.5t137.5 23.5q165 0 282 -118.5t117 -282.5v-193q0 -164 -117 -282.5t-283 -118.5t-280.5 110.5t-122.5 276.5h157q10 -102 78 -166t167 -64t171 72t72 172v193q0 101 -72.5 172t-166.5 71q-95 0 -159.5 -53t-84.5 -145h-162v800
h743z" />
    <glyph glyph-name="six" unicode="6" horiz-adv-x="948" 
d="M478 860q159 0 279 -117.5t120 -283.5v-74q0 -166 -118 -282.5t-283.5 -116.5t-283.5 116t-118 283v74q0 119 69 270l314 696h159l-274 -589q59 24 136 24zM719 459q0 103 -72 173t-176 70t-172 -70t-68 -173v-74q0 -98 72 -170t172 -72t172 72t72 170v74z" />
    <glyph glyph-name="seven" unicode="7" horiz-adv-x="948" 
d="M856 1425v-157l-444 -1268h-160l446 1268h-614v157h772z" />
    <glyph glyph-name="eight" unicode="8" horiz-adv-x="948" 
d="M897 406q0 -173 -122 -296.5t-297 -123.5t-299 124t-124 296q0 104 47.5 193t133.5 151q-148 124 -148 294t114 284t272.5 114t273 -113t114.5 -284q0 -170 -147 -295q182 -130 182 -344zM312.5 1217.5q-66.5 -66.5 -66.5 -161.5t67 -163t161.5 -68t162.5 68t68 163.5
t-67.5 161.5t-162.5 66q-96 0 -162.5 -66.5zM290 220q77 -77 187 -77t186 77.5t76 185t-76 185t-183 77.5q-109 0 -188 -75t-79 -185.5t77 -187.5z" />
    <glyph glyph-name="nine" unicode="9" horiz-adv-x="948" 
d="M474 563q-160 0 -280 116.5t-120 285.5v73q0 168 118.5 285t283.5 117t283 -118t118 -284v-73q0 -119 -70 -271l-313 -694h-160l274 590q-55 -27 -134 -27zM231 965q0 -105 73 -174.5t177 -69.5t171 69t67 175v73q0 102 -72.5 173t-171.5 71t-171.5 -71t-72.5 -173v-73z
" />
    <glyph glyph-name="colon" unicode=":" horiz-adv-x="342" 
d="M258 172v-172h-172v172h172zM258 713v-172h-172v172h172z" />
    <glyph glyph-name="semicolon" unicode=";" horiz-adv-x="342" 
d="M256 172v-172l-172 -172v344h172zM256 713v-172h-172v172h172z" />
    <glyph glyph-name="less" unicode="&#x3c;" 
d="M66 813l950 418v-172l-789 -346l789 -346v-174l-950 419v201z" />
    <glyph glyph-name="equal" unicode="=" 
d="M1016 866h-950v158h950v-158zM1016 401h-950v158h950v-158z" />
    <glyph glyph-name="greater" unicode="&#x3e;" 
d="M66 193v174l788 346l-788 346v172l950 -418v-201z" />
    <glyph glyph-name="question" unicode="?" horiz-adv-x="948" 
d="M756.5 1321q117.5 -119 117.5 -287q0 -123 -77 -229l-215 -291q-26 -39 -27.5 -84t-1.5 -88v-25h-158v90q0 90 13.5 121t27.5 50l223 299q91 128 47 236.5t-113 138.5t-143.5 30t-145.5 -67.5t-75 -176.5h-157q8 178 121.5 290t279.5 112t283.5 -119zM559 172v-172h-172
v172h172z" />
    <glyph glyph-name="at" unicode="@" horiz-adv-x="1554" 
d="M973 1100h131v-447q0 -57 36 -96t89 -39q129 0 129 203q0 117 -46 221.5t-170.5 228t-364.5 123.5t-410 -171.5t-170 -409.5q0 -119 46 -225.5t123.5 -185.5t183 -125t217.5 -46t237 47l51 -123q-129 -55 -275 -55t-276.5 55.5t-228 152.5t-153.5 227t-56 277.5t56 277.5
t152.5 226.5t226.5 152.5t276 56t276.5 -56t227.5 -152.5t153.5 -224.5t56.5 -276t-71.5 -238.5t-188.5 -90.5t-191 78q-43 -66 -113.5 -102.5t-144.5 -36.5q-142 0 -236.5 96.5t-94.5 230.5v119q0 138 95 233t219 95t208 -72v72zM973 774q0 78 -57.5 135.5t-138.5 57.5
t-138 -56.5t-57 -138.5v-119q0 -80 57 -137t139 -57t138.5 58t56.5 136v121z" />
    <glyph glyph-name="A" unicode="A" horiz-adv-x="1232" 
d="M307 317l-110 -317h-166l506 1425h159l506 -1425h-166l-110 317h-619zM616 1210l-254 -735h510z" />
    <glyph glyph-name="B" unicode="B" horiz-adv-x="1118" 
d="M657 1425q164 0 279 -116.5t115 -291.5t-160 -304q160 -125 160 -318q0 -164 -117 -279.5t-277 -115.5h-555v1425h555zM260 158h393q102 0 172 68t70 169t-70 169.5t-172 68.5h-393v-475zM653 793q103 0 172.5 68t69.5 169t-70 169.5t-172 68.5h-393v-475h393z" />
    <glyph glyph-name="C" unicode="C" 
d="M314.5 1190q-91.5 -92 -91.5 -225v-504q0 -131 93.5 -224.5t225.5 -93.5t221 89t93 229h160q-4 -77 -20 -139q-17 -62 -62 -127.5t-139 -137t-254 -71.5q-196 0 -335.5 139.5t-139.5 335.5v504q0 197 139 336t336 139q161 0 312 -116.5t163 -358.5h-160q-4 139 -93 228
t-223 89t-225.5 -92z" />
    <glyph glyph-name="D" unicode="D" horiz-adv-x="1118" 
d="M578 1425q199 0 337 -138t138 -337v-475q0 -198 -138.5 -336.5t-336.5 -138.5h-476v1425h476zM578 158q133 0 225 92t92 225v475q0 134 -92 226t-225 92h-318v-1110h318z" />
    <glyph glyph-name="E" unicode="E" horiz-adv-x="1118" 
d="M262 1268v-475h555v-160h-555v-475h793v-158h-951v1425h951v-157h-793z" />
    <glyph glyph-name="F" unicode="F" horiz-adv-x="1099" 
d="M1055 1425v-157h-793v-475h555v-158h-555v-635h-158v1425h951z" />
    <glyph glyph-name="G" unicode="G" 
d="M316.5 1190q-91.5 -92 -91.5 -225v-504q0 -131 93.5 -224.5t207.5 -93.5t224 73.5t110 260.5v45h-317v158h475v-205q0 -207 -135.5 -348t-335.5 -141t-339.5 139.5t-139.5 335.5v504q0 197 139 336t336 139q163 0 313 -115.5t162 -359.5h-158q-4 137 -94 227t-224 90
t-225.5 -92z" />
    <glyph glyph-name="H" unicode="H" horiz-adv-x="1157" 
d="M260 1425v-632h635v632h158v-1425h-158v635h-635v-635h-158v1425h158z" />
    <glyph glyph-name="I" unicode="I" horiz-adv-x="360" 
d="M258 1425v-1425h-158v1425h158z" />
    <glyph glyph-name="J" unicode="J" 
d="M983 1425v-964q0 -197 -139 -336t-336 -139q-160 0 -286 95.5t-173 256.5q-12 48 -16 123h160q4 -140 92.5 -229t220.5 -89t225.5 93.5t93.5 224.5v964h158z" />
    <glyph glyph-name="K" unicode="K" 
d="M260 0h-158v1425h158v-845l619 845h186l-490 -663l478 -762h-183l-393 629l-217 -297v-332z" />
    <glyph glyph-name="L" unicode="L" horiz-adv-x="1118" 
d="M262 1425v-1267h793v-158h-951v1425h158z" />
    <glyph glyph-name="M" unicode="M" horiz-adv-x="1251" 
d="M252 0h-150v1425h162l361 -995l360 995h162v-1425h-150v1057l-292 -819h-160l-293 819v-1057z" />
    <glyph glyph-name="N" unicode="N" horiz-adv-x="1157" 
d="M897 1425h158v-1425h-158l-635 1124v-1124h-158v1425h158l635 -1124v1124z" />
    <glyph glyph-name="O" unicode="O" 
d="M66 965q0 197 139 336t336.5 139t336 -138.5t138.5 -336.5v-504q0 -197 -139 -336t-335.5 -139t-336 139.5t-139.5 335.5v504zM858 965q0 133 -92 225t-225.5 92t-225.5 -92t-92 -225v-504q0 -129 94.5 -223.5t223 -94.5t223 94.5t94.5 223.5v504z" />
    <glyph glyph-name="P" unicode="P" horiz-adv-x="1099" 
d="M575 1425q200 0 338 -138t138 -335.5t-139.5 -337t-336.5 -139.5h-317v-475h-158v1425h475zM575 633q132 0 225 93t93 225.5t-92 224.5t-226 92h-317v-635h317z" />
    <glyph glyph-name="Q" unicode="Q" 
d="M541 -14q-198 0 -336.5 138.5t-138.5 336.5v504q0 197 139 336t336.5 139t336 -138.5t138.5 -336.5v-504q0 -106 -45 -202.5t-125 -162.5l170 -334h-158l-133 261q-88 -37 -184 -37zM858 965q0 133 -92 225t-225.5 92t-225.5 -92t-92 -225v-504q0 -129 94.5 -223.5
t223 -94.5t223 94.5t94.5 223.5v504z" />
    <glyph glyph-name="R" unicode="R" horiz-adv-x="1099" 
d="M262 539v-539h-158v1425h506q185 0 315 -130t130 -314q0 -135 -78 -248.5t-205 -163.5l283 -569h-172l-269 539h-352zM610 696q119 0 203 84t84 202t-84 202t-203 84h-348v-572h348z" />
    <glyph glyph-name="S" unicode="S" horiz-adv-x="966" 
d="M459 1282q-104 0 -171 -58.5t-67 -138.5t40 -129t136 -90l211 -92q147 -66 214 -158t67 -227q0 -178 -114 -290.5t-292 -112.5q-293 0 -450 295l145 55q113 -193 311 -193q106 0 174 69t68 164t-46 152.5t-148 102.5l-201 88q-273 118 -273 350q0 160 111.5 265.5
t282.5 105.5q307 0 463 -285l-144 -63q-115 190 -317 190z" />
    <glyph glyph-name="T" unicode="T" 
d="M1016 1425v-157h-398v-1268h-157v1268h-395v157h950z" />
    <glyph glyph-name="U" unicode="U" horiz-adv-x="1157" 
d="M260 1425v-964q0 -129 94.5 -223.5t223 -94.5t223 94.5t94.5 223.5v964h158v-964q0 -197 -139 -336t-335.5 -139t-336.5 140t-140 335v964h158z" />
    <glyph glyph-name="V" unicode="V" horiz-adv-x="1024" 
d="M829 1425h158l-389 -1425h-172l-389 1425h160l315 -1179z" />
    <glyph glyph-name="W" unicode="W" horiz-adv-x="1705" 
d="M1200 270l320 1155h157l-405 -1425h-156l-262 1126l-262 -1126h-156l-407 1425h157l320 -1155l270 1155h156z" />
    <glyph glyph-name="X" unicode="X" horiz-adv-x="1005" 
d="M809 1425h170l-389 -712l389 -713h-170l-305 557l-305 -557h-170l389 713l-389 712h170l305 -557z" />
    <glyph glyph-name="Y" unicode="Y" horiz-adv-x="1005" 
d="M582 0h-160v639l-395 786h166l309 -628l309 628h166l-395 -786v-639z" />
    <glyph glyph-name="Z" unicode="Z" 
d="M1014 158v-158h-951v158l777 1110h-777v157h951v-157l-776 -1110h776z" />
    <glyph glyph-name="bracketleft" unicode="[" horiz-adv-x="645" 
d="M571 1425v-157h-317v-1110h317v-158h-475v1425h475z" />
    <glyph glyph-name="backslash" unicode="\" horiz-adv-x="663" 
d="M631 0h-158l-436 1425h158z" />
    <glyph glyph-name="bracketright" unicode="]" horiz-adv-x="645" 
d="M549 0h-475v158h317v1110h-317v157h475v-1425z" />
    <glyph glyph-name="asciicircum" unicode="^" horiz-adv-x="796" 
d="M469 1425l301 -594h-143l-230 455l-227 -455h-143l301 594h141z" />
    <glyph glyph-name="underscore" unicode="_" horiz-adv-x="702" 
d="M643 158v-158h-586v158h586z" />
    <glyph glyph-name="grave" unicode="`" horiz-adv-x="378" 
d="M324 1159h-113l-178 266h143z" />
    <glyph glyph-name="a" unicode="a" horiz-adv-x="909" 
d="M686 633q0 97 -70.5 169t-157.5 72q-86 0 -146 -40.5t-89 -108.5l-135 55q49 113 144.5 176.5t194.5 63.5q179 0 291.5 -112.5t112.5 -274.5v-633h-147v125q-92 -125 -242 -125h-86q-123 0 -210 87t-87 210t87 210t210 87h330v39zM356 449q-63 0 -107 -44.5t-44 -108
t44 -107.5t107 -44h86q103 0 173.5 86t70.5 218h-330z" />
    <glyph glyph-name="b" unicode="b" horiz-adv-x="909" 
d="M86 1425h143v-510q102 95 251 95t263.5 -113t114.5 -274v-238q0 -158 -114 -271.5t-264 -113.5t-251 94v-94h-143v1425zM229 385q0 -99 72.5 -169.5t169.5 -70.5t169.5 70.5t72.5 169.5v238q0 99 -72.5 170t-169.5 71t-169.5 -71t-72.5 -170v-238z" />
    <glyph glyph-name="c" unicode="c" horiz-adv-x="890" 
d="M274 801.5q-69 -72.5 -69 -168.5v-256q0 -96 69.5 -169t170.5 -73t169 69.5t72 172.5h145q-8 -170 -115.5 -278.5t-269.5 -108.5q-161 0 -274 114.5t-113 272.5v256q0 159 114 273t274 114t268 -108.5t116 -278.5h-145q-4 103 -71.5 172t-169.5 69t-171 -72.5z" />
    <glyph glyph-name="d" unicode="d" horiz-adv-x="909" 
d="M682 0v94q-100 -94 -251 -94t-264.5 114.5t-113.5 270.5v238q0 159 114 273t263 114t252 -95v510h143v-1425h-143zM199 385q0 -99 72 -169.5t169.5 -70.5t169.5 70.5t72 169.5v238q0 98 -71.5 169.5t-170 71.5t-170 -71.5t-71.5 -169.5v-238z" />
    <glyph glyph-name="e" unicode="e" horiz-adv-x="890" 
d="M61 377v256q0 159 114 273t272.5 114t272.5 -114t114 -273v-146h-627v-110q0 -96 69.5 -169t171.5 -73t175 78l102 -104q-111 -119 -274.5 -119t-276.5 114.5t-113 272.5zM688 627q0 101 -67.5 174t-171.5 73t-171 -69.5t-71 -177.5h481z" />
    <glyph glyph-name="f" unicode="f" horiz-adv-x="606" 
d="M324 0h-146v831h-119v146h119v184q0 112 77.5 188t186.5 76h119v-145h-119q-51 0 -84.5 -34t-33.5 -85v-184h204v-146h-204v-831z" />
    <glyph glyph-name="g" unicode="g" horiz-adv-x="909" 
d="M686 1010h143v-1039q0 -160 -113.5 -273.5t-272.5 -113.5t-273 115l98 108q76 -77 176 -77t171 71.5t71 169.5v123q-102 -94 -252 -94t-263.5 114.5t-113.5 272.5v236q0 158 116.5 272.5t267.5 114.5q150 0 245 -95v95zM686 623q0 98 -71.5 169.5t-170 71.5t-170 -71.5
t-71.5 -169.5v-236q0 -97 71 -169.5t170.5 -72.5t170.5 72.5t71 169.5v236z" />
    <glyph glyph-name="h" unicode="h" horiz-adv-x="948" 
d="M88 1425h145v-510q102 95 250 95t262.5 -113t114.5 -274v-623h-145v623q0 97 -70.5 169t-168.5 72t-170.5 -71t-72.5 -170v-623h-145v1425z" />
    <glyph glyph-name="i" unicode="i" horiz-adv-x="342" 
d="M242 1010v-1010h-146v1010h146zM256 1425v-172h-172v172h172z" />
    <glyph glyph-name="j" unicode="j" horiz-adv-x="397" 
d="M274 1010v-1162q0 -111 -78 -187.5t-190 -76.5h-59v146h59q53 0 88 33.5t35 84.5v1162h145zM287 1425v-172h-172v172h172z" />
    <glyph glyph-name="k" unicode="k" horiz-adv-x="948" 
d="M236 0h-146v1425h146v-987l489 572h184l-340 -396l353 -614h-172l-279 502l-235 -275v-227z" />
    <glyph glyph-name="l" unicode="l" horiz-adv-x="417" 
d="M242 264q0 -49 34.5 -84t83.5 -35h60v-145h-60q-110 0 -187 77t-77 187v1161h146v-1161z" />
    <glyph glyph-name="m" unicode="m" horiz-adv-x="1572" 
d="M1095 1010q164 0 278 -114t114 -273v-623h-144v623q0 102 -72 172.5t-170 70.5t-170.5 -71t-72.5 -172v-623h-143v627q0 100 -73 169.5t-171 69.5t-170 -71t-72 -172v-623h-143v1010h143v-99q100 98 242 99q94 0 179 -44t136 -118q55 78 138.5 120t170.5 42z" />
    <glyph glyph-name="n" unicode="n" horiz-adv-x="948" 
d="M88 1010h145v-95q102 95 250 95t262.5 -113t114.5 -274v-623h-145v623q0 97 -70.5 169t-168.5 72t-170.5 -71t-72.5 -170v-623h-145v1010z" />
    <glyph glyph-name="o" unicode="o" horiz-adv-x="890" 
d="M831 377q0 -161 -111.5 -274t-273 -113t-274.5 114.5t-113 272.5v256q0 159 114 273t273.5 114t272 -112.5t112.5 -274.5v-256zM205 377q0 -97 71 -169.5t171 -72.5t169.5 73t69.5 169v256q0 96 -69 168.5t-170 72.5t-171.5 -72t-70.5 -169v-256z" />
    <glyph glyph-name="p" unicode="p" horiz-adv-x="909" 
d="M223 1010v-95q102 95 251 95t263.5 -113t114.5 -274v-236q0 -160 -113 -273.5t-263 -113.5t-253 94v-510h-143v1426h143zM707 623q0 99 -72.5 170t-169.5 71t-169.5 -71t-72.5 -170v-236q0 -98 72 -170t170 -72t170 72t72 170v236z" />
    <glyph glyph-name="q" unicode="q" horiz-adv-x="909" 
d="M831 -416h-143v510q-102 -94 -252 -94t-263.5 114.5t-113.5 272.5v236q0 159 114 273t263 114t252 -95v95h143v-1426zM688 623q0 98 -71.5 169.5t-170 71.5t-170 -71.5t-71.5 -169.5v-236q0 -97 71 -169.5t170.5 -72.5t170.5 72.5t71 169.5v236z" />
    <glyph glyph-name="r" unicode="r" horiz-adv-x="778" 
d="M88 1010h145v-95q100 95 248 95t269 -115l-105 -107q-70 76 -170 76t-171 -72t-71 -169v-623h-145v1010z" />
    <glyph glyph-name="s" unicode="s" horiz-adv-x="702" 
d="M193 759q0 -44 28.5 -79t102.5 -68l118 -53q211 -91 211 -263q0 -141 -84.5 -223.5t-202.5 -82.5q-234 0 -341 209l131 63q35 -61 93 -96t115 -35t99.5 42t42.5 101q0 102 -125 158l-107 47q-227 98 -227 275q0 112 85.5 189t199.5 77q115 0 204 -55.5t136 -153.5
l-131 -61q-74 124 -205 124q-59 0 -101 -35.5t-42 -79.5z" />
    <glyph glyph-name="t" unicode="t" horiz-adv-x="587" 
d="M324 264q0 -49 33.5 -84t84.5 -35h37v-145h-37q-110 0 -187 77t-77 187v600h-119v146h119v415h146v-415h202v-146h-202v-600z" />
    <glyph glyph-name="u" unicode="u" horiz-adv-x="948" 
d="M860 0h-145v94q-102 -94 -251 -94t-262.5 114.5t-113.5 270.5v625h145v-625q0 -98 71 -169t168.5 -71t170 70.5t72.5 169.5v625h145v-1010z" />
    <glyph glyph-name="v" unicode="v" horiz-adv-x="833" 
d="M643 1010h160l-314 -1010h-143l-313 1010h160l225 -783z" />
    <glyph glyph-name="w" unicode="w" horiz-adv-x="1402" 
d="M983 211l234 799h153l-315 -1010h-148l-205 788l-204 -788h-148l-315 1010h153l232 -799l203 799h159z" />
    <glyph glyph-name="x" unicode="x" horiz-adv-x="929" 
d="M190 0h-172l361 506l-361 504h172l273 -385l274 385h172l-360 -504l360 -506h-172l-274 385z" />
    <glyph glyph-name="y" unicode="y" horiz-adv-x="909" 
d="M23 1010h157l271 -766l278 766h156l-445 -1225q-72 -193 -301 -201v154q131 6 164 94l74 205z" />
    <glyph glyph-name="z" unicode="z" horiz-adv-x="833" 
d="M774 145v-145h-713v145l537 719h-537v146h713v-146l-536 -719h536z" />
    <glyph glyph-name="braceleft" unicode="{" horiz-adv-x="530" 
d="M59 784h31q47 0 80 33t33 82v270q0 109 71.5 180.5t186.5 75.5v-143q-51 -2 -83 -32.5t-32 -80.5v-270q0 -119 -102 -186q102 -68 102 -187v-270q0 -49 32 -80t83 -33v-143q-115 4 -186.5 75.5t-71.5 180.5v270q0 49 -33 82t-80 33h-31v143z" />
    <glyph glyph-name="bar" unicode="|" horiz-adv-x="360" 
d="M258 1425v-1841h-158v1841h158z" />
    <glyph glyph-name="braceright" unicode="}" horiz-adv-x="530" 
d="M440 641q-47 0 -79.5 -33t-32.5 -82v-270q0 -109 -72 -180.5t-186 -75.5v143q51 2 82.5 33t31.5 80v270q0 119 103 187q-102 68 -103 186v270q0 49 -31.5 80t-82.5 33v143q115 -4 186.5 -75.5t71.5 -180.5v-270q0 -49 32.5 -82t79.5 -33h31v-143h-31z" />
    <glyph glyph-name="asciitilde" unicode="~" horiz-adv-x="663" 
d="M428 1149q-56 -1 -115 31t-84 32h-6q-49 0 -86 -61l-106 53q29 53 80 94t102 41t76.5 -7.5t71.5 -31.5t73 -24q53 0 88 59l109 -51q-66 -135 -203 -135z" />
    <glyph glyph-name="exclamdown" unicode="&#xa1;" horiz-adv-x="303" 
d="M197 692l32 -1108h-157l30 1108h95zM63 1010h173v-172h-173v172z" />
    <glyph glyph-name="cent" unicode="&#xa2;" horiz-adv-x="890" 
d="M59 584v258q0 159 114 273t273 114q57 0 115 -19l78 230l90 -29l-82 -242q86 -53 135 -139t49 -188h-145q0 111 -86 184l-225 -672q41 -12 79 -12q92 0 160 70t72 172h145q-8 -171 -116 -279t-273 -108q-55 0 -114 18l-76 -229l-90 30l80 240q-86 53 -134.5 140
t-48.5 188zM437 1083q-88 0 -160 -74t-72 -167v-258q0 -59 29.5 -110.5t56.5 -74.5l223 672q-37 12 -77 12z" />
    <glyph glyph-name="sterling" unicode="&#xa3;" horiz-adv-x="909" 
d="M279 486q0 56 -21 155h-195v143h142q-12 33 -47 113t-35 164q0 161 110.5 270t261.5 109t255 -103t116 -268h-143q-4 100 -67.5 163.5t-162 63.5t-163 -68.5t-64.5 -172.5q0 -62 33 -142t53 -129h277v-143h-228q42 -188 7 -285.5t-91 -165.5q20 5 62 5q42 1 93 -21
q86 -36 102 -40.5t38 -4.5q102 0 191 107l94 -103q-120 -147 -289 -147q-64 0 -145 35t-129 36q-80 0 -164 -71l-98 116q162 134 184.5 231t22.5 153z" />
    <glyph glyph-name="currency" unicode="&#xa4;" horiz-adv-x="1232" 
d="M1120 713q0 -162 -100 -301l172 -172l-102 -103l-172 172q-129 -100 -298 -100q-170 0 -307 100l-172 -172l-102 103l172 172q-100 140 -100 303q0 162 100 299l-172 172l102 102l172 -170q141 100 305 100t300 -100l172 172l102 -104l-172 -170q100 -141 100 -303z
M349 983q-111 -109 -111 -267t109.5 -269t267 -111t268 110.5t110.5 268t-111.5 267.5t-266.5 110t-266 -109z" />
    <glyph glyph-name="yen" unicode="&#xa5;" horiz-adv-x="1005" 
d="M580 0h-158v397h-305v111h305v174h-305v111h260l-350 632h159l316 -571l315 571h160l-352 -632h262v-111h-307v-174h307v-111h-307v-397z" />
    <glyph glyph-name="brokenbar" unicode="&#xa6;" horiz-adv-x="360" 
d="M258 1425v-712h-158v712h158zM258 297v-713h-158v713h158z" />
    <glyph glyph-name="section" unicode="&#xa7;" horiz-adv-x="985" 
d="M72 610q0 150 106 260q-59 102 -59 190q0 163 110.5 272.5t263.5 109.5t258 -108.5t109 -278.5h-143q-4 111 -66.5 177t-159.5 66t-164 -68t-67 -150q0 -83 45 -142t107 -82l258 -92q111 -41 177 -136.5t66 -228.5t-106 -243q59 -100 59 -190q0 -164 -109.5 -273
t-263.5 -109t-259 108.5t-109 278.5h143q0 -105 67 -174t161 -69t160.5 68t66.5 149q0 82 -41 141t-111 84l-256 92q-122 45 -182.5 147t-60.5 201zM215 618q0 -80 41 -139t109 -84l258 -92q49 -16 86 -43q61 66 61 147t-41 140t-111 84l-256 92q-51 16 -86 43
q-61 -68 -61 -148z" />
    <glyph glyph-name="dieresis" unicode="&#xa8;" horiz-adv-x="645" 
d="M252 1362v-172h-172v172h172zM567 1362v-172h-172v172h172z" />
    <glyph glyph-name="copyright" unicode="&#xa9;" horiz-adv-x="1572" 
d="M573 881v-336q0 -87 63.5 -149t153.5 -62t149.5 59.5t64.5 151.5h126q-4 -147 -101.5 -242.5t-239.5 -95.5q-141 0 -242 99t-101 239v336q0 139 101.5 238.5t241.5 99.5t238.5 -96t102.5 -242h-126q-4 92 -63.5 151.5t-150.5 59.5t-154 -63t-63 -148zM796 1442
q150 0 280 -58.5t227.5 -158t155 -231.5t57.5 -282t-57.5 -282.5t-156 -231t-230.5 -155.5t-283.5 -57t-284.5 57t-231.5 156.5t-156 233.5t-57.5 285.5t58.5 283t158 229.5t235 154.5t285.5 56.5zM795 1368q-135 0 -256 -51t-211 -138t-142.5 -206t-52.5 -255t51.5 -257
t192 -261.5t411.5 -140.5q135 0 254 51.5t208 140.5t140.5 209t51.5 254t-51.5 252.5t-139.5 208t-204.5 141.5t-251.5 52z" />
    <glyph glyph-name="ordfeminine" unicode="&#xaa;" horiz-adv-x="569" 
d="M420 848v65q-55 -66 -137 -65h-43q-74 0 -126.5 52.5t-52.5 123.5t52.5 123.5t126.5 52.5h170q-2 63 -36 99t-89 36q-82 0 -119 -82l-88 39q31 66 85.5 103t110.5 37q105 0 168.5 -67t63.5 -157v-360h-86zM240 1104q-35 0 -58.5 -23.5t-23.5 -57.5t23.5 -57.5t58.5 -23.5
h43q71 0 106 57q14 20 18.5 39t2.5 66h-170zM63 639v94h443v-94h-443z" />
    <glyph glyph-name="guillemotleft" unicode="&#xab;" horiz-adv-x="872" 
d="M408 1010h157l-387 -506l387 -504h-157l-388 504zM684 1010h160l-387 -506l387 -504h-160l-387 504z" />
    <glyph glyph-name="logicalnot" unicode="&#xac;" 
d="M852 342v584h-793v157h951v-741h-158z" />
    <glyph glyph-name="registered" unicode="&#xae;" horiz-adv-x="1572" 
d="M602 582v-369h-127v999h369q131 0 223 -92t92 -206t-53 -193.5t-145 -116.5l198 -391h-131l-188 369h-238zM844 709q79 0 133.5 53t54.5 135t-54.5 135t-133.5 53h-242v-376h242zM796 1442q150 0 280 -58.5t227.5 -158t155 -231.5t57.5 -282t-57.5 -282.5t-156 -231
t-230.5 -155.5t-283.5 -57t-284.5 57t-231.5 156.5t-156 233.5t-57.5 285.5t58.5 283t158 229.5t235 154.5t285.5 56.5zM795 1368q-135 0 -256 -51t-211 -138t-142.5 -206t-52.5 -255t51.5 -257t192 -261.5t411.5 -140.5q135 0 254 51.5t208 140.5t140.5 209t51.5 254
t-51.5 252.5t-139.5 208t-204.5 141.5t-251.5 52z" />
    <glyph glyph-name="macron" unicode="&#xaf;" horiz-adv-x="720" 
d="M657 1192h-594v100h594v-100z" />
    <glyph glyph-name="degree" unicode="&#xb0;" horiz-adv-x="473" 
d="M364 1431q52 -54 52 -126t-52.5 -124.5t-126 -52.5t-126 52.5t-52.5 126.5t54 126t126.5 52t124.5 -54zM239 1421q-46 0 -81 -33.5t-35 -80.5t33.5 -81t81 -34t81 34t33.5 81t-33.5 80.5t-79.5 33.5z" />
    <glyph glyph-name="plusminus" unicode="&#xb1;" 
d="M1016 936v-152h-400v-297h-151v297h-399v152h399v297h151v-297h400zM1016 207h-950v158h950v-158z" />
    <glyph glyph-name="twosuperior" unicode="&#xb2;" horiz-adv-x="548" 
d="M492 823v-110h-433v110l293 324q29 29 29 73t-31 74.5t-75 30.5t-73.5 -29.5t-31.5 -76.5h-111q2 92 63.5 154.5t151.5 62.5t154 -64t64 -150t-58 -151l-225 -248h283z" />
    <glyph glyph-name="threesuperior" unicode="&#xb3;" horiz-adv-x="548" 
d="M276 1434q80 0 136.5 -57.5t56.5 -145.5t-74 -144q90 -61 90 -161t-61 -160.5t-149.5 -60.5t-148.5 60t-60 150h110q2 -43 29.5 -70.5t68.5 -27.5t70 30t29 74t-29 76.5t-70 32.5h-53v111h53q35 0 58.5 28.5t23.5 66.5t-23.5 61.5t-58 23.5t-57 -23.5t-24.5 -58.5h-111
q2 84 58 139.5t136 55.5z" />
    <glyph glyph-name="acute" unicode="&#xb4;" horiz-adv-x="378" 
d="M346 1425l-178 -266h-113l148 266h143z" />
    <glyph glyph-name="mu" unicode="&#xb5;" horiz-adv-x="1042" 
d="M948 0q-121 0 -200 117q-113 -117 -287 -117q-121 0 -230 92v-508h-143v1426h143v-623q0 -100 72 -172t171 -72t171 72t72 172v623h143v-777q0 -37 26.5 -63.5t61.5 -26.5h60v-143h-60z" />
    <glyph glyph-name="mu" unicode="&#x3bc;" horiz-adv-x="1042" 
d="M948 0q-121 0 -200 117q-113 -117 -287 -117q-121 0 -230 92v-508h-143v1426h143v-623q0 -100 72 -172t171 -72t171 72t72 172v623h143v-777q0 -37 26.5 -63.5t61.5 -26.5h60v-143h-60z" />
    <glyph glyph-name="paragraph" unicode="&#xb6;" horiz-adv-x="1042" 
d="M183.5 1302.5q120.5 122.5 291.5 122.5h475v-1841h-114v1727h-246v-1727h-115v1014q-172 4 -292 122.5t-120 289t120.5 293z" />
    <glyph glyph-name="periodcentered" unicode="&#xb7;" horiz-adv-x="436" 
d="M220 840q52 0 89 -37t37 -90.5t-37 -90t-90 -36.5t-90 36.5t-37 90t38 90.5t90 37z" />
    <glyph glyph-name="cedilla" unicode="&#xb8;" horiz-adv-x="378" 
d="M166 -262q23 0 41 18t18 42t-18.5 42.5t-40.5 18.5h-96l30 161h86l-12 -73q59 -4 99 -47t40 -102.5t-44 -103.5t-103 -44h-105v88h105z" />
    <glyph glyph-name="onesuperior" unicode="&#xb9;" horiz-adv-x="548" 
d="M356 1425v-712h-110v602h-156v110h266z" />
    <glyph glyph-name="ordmasculine" unicode="&#xba;" horiz-adv-x="569" 
d="M506 1067q0 -92 -64.5 -156.5t-156.5 -64.5t-157 64t-65 157v143q0 92 65 157t157 65t156.5 -65.5t64.5 -156.5v-143zM158 1067q0 -53 36.5 -90t90 -37t90.5 37t37 90v143q0 53 -37 90t-90.5 37t-90 -36.5t-36.5 -90.5v-143zM63 639v94h443v-94h-443z" />
    <glyph glyph-name="guillemotright" unicode="&#xbb;" horiz-adv-x="872" 
d="M463 0h-160l387 504l-387 506h160l387 -506zM184 0h-157l387 504l-387 506h157l387 -506z" />
    <glyph glyph-name="onequarter" unicode="&#xbc;" horiz-adv-x="1251" 
d="M1237 94h-76v-94h-110v94h-316v111l281 508h145v-508h76v-111zM1051 205v360l-199 -360h199zM358 1425v-712h-110v602h-156v110h266zM1102 1384l-862 -1398l-88 53l862 1401z" />
    <glyph glyph-name="onehalf" unicode="&#xbd;" horiz-adv-x="1251" 
d="M1194 111v-111h-432v111l293 323q29 29 29 72t-31 73.5t-75 30.5t-74 -29.5t-32 -74.5h-110q0 87 62 151t152.5 64t154 -63.5t63.5 -149.5t-57 -150l-226 -247h283zM358 1425v-712h-110v602h-156v110h266zM1102 1384l-862 -1398l-88 53l862 1401z" />
    <glyph glyph-name="threequarters" unicode="&#xbe;" horiz-adv-x="1251" 
d="M1235 94h-76v-94h-110v94h-314v111l279 508h145v-508h76v-111zM1049 205v360l-197 -360h197zM276 1434q80 0 136.5 -57.5t56.5 -145.5t-74 -144q90 -61 90 -161t-61 -160.5t-149.5 -60.5t-148.5 60t-60 150h110q2 -43 29.5 -70.5t68.5 -27.5t70 30t29 74t-29 76.5
t-70 32.5h-53v111h53q35 0 58.5 28.5t23.5 66.5t-23.5 61.5t-58 23.5t-57 -23.5t-24.5 -58.5h-111q2 84 58 139.5t136 55.5zM1100 1384l-860 -1398l-90 53l862 1401z" />
    <glyph glyph-name="questiondown" unicode="&#xbf;" horiz-adv-x="948" 
d="M189 -311q-117 119 -117 286q0 125 78 230l215 291q28 39 28 52v144h160q0 -182 -13.5 -210.5t-29.5 -49.5l-223 -299q-57 -75 -57 -143q-1 -116 70.5 -189t173.5 -73q101 0 170 69.5t73 173.5h157q-8 -176 -120.5 -288.5t-280 -112.5t-284.5 119zM387 838v172h172v-172
h-172z" />
    <glyph glyph-name="Agrave" unicode="&#xc0;" horiz-adv-x="1232" 
d="M307 317l-110 -317h-166l506 1425h159l506 -1425h-166l-110 317h-619zM616 1210l-254 -735h510zM752 1573h-113l-178 268h141z" />
    <glyph glyph-name="Aacute" unicode="&#xc1;" horiz-adv-x="1232" 
d="M307 317l-110 -317h-166l506 1425h159l506 -1425h-166l-110 317h-619zM616 1210l-254 -735h510zM774 1841l-178 -268h-113l148 268h143z" />
    <glyph glyph-name="Acircumflex" unicode="&#xc2;" horiz-adv-x="1232" 
d="M307 317l-110 -317h-166l506 1425h159l506 -1425h-166l-110 317h-619zM616 1210l-254 -735h510zM696 1841l166 -268h-141l-105 158l-104 -158h-139l164 268h159z" />
    <glyph glyph-name="Atilde" unicode="&#xc3;" horiz-adv-x="1232" 
d="M307 317l-110 -317h-166l506 1425h159l506 -1425h-166l-110 317h-619zM616 1210l-254 -735h510zM721 1671q56 0 88 62l106 -54q-66 -135 -200 -135q-56 0 -106 26t-66.5 33t-36.5 7q-47 0 -82 -64l-107 53q70 135 201 136q54 0 123 -37q59 -27 80 -27z" />
    <glyph glyph-name="Adieresis" unicode="&#xc4;" horiz-adv-x="1232" 
d="M307 317l-110 -317h-166l506 1425h159l506 -1425h-166l-110 317h-619zM616 1210l-254 -735h510zM545 1778v-172h-172v172h172zM860 1778v-172h-172v172h172z" />
    <glyph glyph-name="Aring" unicode="&#xc5;" horiz-adv-x="1232" 
d="M307 317l-110 -317h-166l506 1425h159l506 -1425h-166l-110 317h-619zM616 1210l-254 -735h510zM743 1847q52 -54 52 -127q0 -72 -52.5 -124t-126 -52t-126 52.5t-52.5 126.5t54 126t126.5 52t124.5 -54zM618.5 1837q-47.5 0 -82 -34t-34.5 -81t33.5 -80.5t81 -33.5
t81 33.5t33.5 80.5t-32.5 81t-80 34z" />
    <glyph glyph-name="AE" unicode="&#xc6;" horiz-adv-x="1857" 
d="M1792 1425v-157h-752v-475h514v-158h-514v-477h752v-158h-909v317h-588l-105 -317h-159l475 1425h1286zM883 475v793h-271l-264 -793h535z" />
    <glyph glyph-name="Ccedilla" unicode="&#xc7;" 
d="M717 -202.5q0 -59.5 -44 -103.5t-104 -44h-104v88h104q25 0 42.5 19t17.5 43t-17.5 41.5t-42.5 17.5h-96l25 129q-185 16 -308.5 152.5t-123.5 320.5v504q0 197 139 336t336 139q163 0 319 -120t156 -355h-158q-4 139 -93 228t-221.5 89t-226.5 -94t-94 -223v-504
q0 -129 94.5 -223.5t225.5 -94.5t221 90t94 228h158q0 -186 -125 -322.5t-305 -152.5l-8 -39q59 -6 99 -48t40 -101.5z" />
    <glyph glyph-name="Egrave" unicode="&#xc8;" horiz-adv-x="1118" 
d="M262 1268v-475h555v-160h-555v-475h793v-158h-951v1425h951v-157h-793zM694 1573h-112l-179 268h142z" />
    <glyph glyph-name="Eacute" unicode="&#xc9;" horiz-adv-x="1118" 
d="M262 1268v-475h555v-160h-555v-475h793v-158h-951v1425h951v-157h-793zM717 1841l-178 -268h-113l149 268h142z" />
    <glyph glyph-name="Ecircumflex" unicode="&#xca;" horiz-adv-x="1118" 
d="M262 1268v-475h555v-160h-555v-475h793v-158h-951v1425h951v-157h-793zM641 1841l164 -268h-141l-103 158l-104 -158h-142l166 268h160z" />
    <glyph glyph-name="Edieresis" unicode="&#xcb;" horiz-adv-x="1118" 
d="M262 1268v-475h555v-160h-555v-475h793v-158h-951v1425h951v-157h-793zM489 1778v-172h-172v172h172zM803 1778v-172h-172v172h172z" />
    <glyph glyph-name="Igrave" unicode="&#xcc;" horiz-adv-x="360" 
d="M258 1425v-1425h-158v1425h158zM313 1573h-112l-178 268h143z" />
    <glyph glyph-name="Iacute" unicode="&#xcd;" horiz-adv-x="360" 
d="M260 1425v-1425h-158v1425h158zM338 1841l-178 -268h-113l148 268h143z" />
    <glyph glyph-name="Icircumflex" unicode="&#xce;" horiz-adv-x="360" 
d="M260 1425v-1425h-158v1425h158zM260 1841l166 -268h-141l-103 158l-104 -158h-141l163 268h160z" />
    <glyph glyph-name="Idieresis" unicode="&#xcf;" horiz-adv-x="360" 
d="M258 1425v-1425h-158v1425h158zM109 1778v-172h-172v172h172zM424 1778v-172h-172v172h172z" />
    <glyph glyph-name="Eth" unicode="&#xd0;" horiz-adv-x="1118" 
d="M43 666v94h59v665h476q199 0 337 -138t138 -337v-475q0 -198 -138.5 -336.5t-336.5 -138.5h-476v666h-59zM260 158h318q133 0 225 92t92 225v475q0 134 -92 226t-225 92h-318v-508h318v-94h-318v-508z" />
    <glyph glyph-name="Ntilde" unicode="&#xd1;" horiz-adv-x="1157" 
d="M897 1425h158v-1425h-158l-635 1124v-1124h-158v1425h158l635 -1124v1124zM682 1671q56 0 88 62l107 -54q-66 -135 -201 -135q-56 0 -118 33t-91 33q-47 0 -82 -64l-106 53q70 135 200 136q54 0 123 -37q59 -27 80 -27z" />
    <glyph glyph-name="Ograve" unicode="&#xd2;" 
d="M66 965q0 197 139 336t336.5 139t336 -138.5t138.5 -336.5v-504q0 -197 -139 -336t-335.5 -139t-336 139.5t-139.5 335.5v504zM858 965q0 133 -92 225t-225.5 92t-225.5 -92t-92 -225v-504q0 -129 94.5 -223.5t223 -94.5t223 94.5t94.5 223.5v504zM674 1573h-113
l-178 268h143z" />
    <glyph glyph-name="Oacute" unicode="&#xd3;" 
d="M66 965q0 197 139 336t336.5 139t336 -138.5t138.5 -336.5v-504q0 -197 -139 -336t-335.5 -139t-336 139.5t-139.5 335.5v504zM858 965q0 133 -92 225t-225.5 92t-225.5 -92t-92 -225v-504q0 -129 94.5 -223.5t223 -94.5t223 94.5t94.5 223.5v504zM698 1841l-178 -268
h-112l147 268h143z" />
    <glyph glyph-name="Ocircumflex" unicode="&#xd4;" 
d="M66 965q0 197 139 336t336.5 139t336 -138.5t138.5 -336.5v-504q0 -197 -139 -336t-335.5 -139t-336 139.5t-139.5 335.5v504zM858 965q0 133 -92 225t-225.5 92t-225.5 -92t-92 -225v-504q0 -129 94.5 -223.5t223 -94.5t223 94.5t94.5 223.5v504zM621 1841l163 -268
h-139l-104 158l-105 -158h-141l166 268h160z" />
    <glyph glyph-name="Otilde" unicode="&#xd5;" 
d="M66 965q0 197 139 336t336.5 139t336 -138.5t138.5 -336.5v-504q0 -197 -139 -336t-335.5 -139t-336 139.5t-139.5 335.5v504zM858 965q0 133 -92 225t-225.5 92t-225.5 -92t-92 -225v-504q0 -129 94.5 -223.5t223 -94.5t223 94.5t94.5 223.5v504zM637 1544
q-53 0 -104 26q-52 26 -67 33t-34 7q-51 0 -84 -64l-108 53q70 135 202 136q48 0 81.5 -15.5t65.5 -31.5t56 -17q56 0 88 62l107 -54q-70 -135 -203 -135z" />
    <glyph glyph-name="Odieresis" unicode="&#xd6;" 
d="M66 965q0 197 139 336t336.5 139t336 -138.5t138.5 -336.5v-504q0 -197 -139 -336t-335.5 -139t-336 139.5t-139.5 335.5v504zM858 965q0 133 -92 225t-225.5 92t-225.5 -92t-92 -225v-504q0 -129 94.5 -223.5t223 -94.5t223 94.5t94.5 223.5v504zM469 1778v-172h-172
v172h172zM784 1778v-172h-172v172h172z" />
    <glyph glyph-name="multiply" unicode="&#xd7;" horiz-adv-x="1060" 
d="M889 1178l106 -109l-356 -356l356 -357l-106 -108l-357 358l-356 -358l-108 108l356 357l-356 356l106 109l358 -359z" />
    <glyph glyph-name="Oslash" unicode="&#xd8;" 
d="M66 461v504q0 197 139 336t329 139t326 -123l76 123l80 -49l-90 -148q90 -127 90 -278v-504q0 -197 -139 -336t-330 -139t-326 123l-76 -123l-79 49l90 147q-90 125 -90 279zM858 461v504q0 64 -27 127l-524 -846q96 -102 229 -102t227.5 94t94.5 223zM223 965v-504
q0 -72 27 -127l524 846q-96 102 -230 102t-227.5 -94t-93.5 -223z" />
    <glyph glyph-name="Ugrave" unicode="&#xd9;" horiz-adv-x="1157" 
d="M260 1425v-964q0 -129 94.5 -223.5t223 -94.5t223 94.5t94.5 223.5v964h158v-964q0 -197 -139 -336t-335.5 -139t-336.5 140t-140 335v964h158zM711 1573h-113l-178 268h143z" />
    <glyph glyph-name="Uacute" unicode="&#xda;" horiz-adv-x="1157" 
d="M260 1425v-964q0 -129 94.5 -223.5t223 -94.5t223 94.5t94.5 223.5v964h158v-964q0 -197 -139 -336t-335.5 -139t-336.5 140t-140 335v964h158zM735 1841l-178 -268h-113l148 268h143z" />
    <glyph glyph-name="Ucircumflex" unicode="&#xdb;" horiz-adv-x="1157" 
d="M260 1425v-964q0 -129 94.5 -223.5t223 -94.5t223 94.5t94.5 223.5v964h158v-964q0 -197 -139 -336t-335.5 -139t-336.5 140t-140 335v964h158zM657 1841l166 -268h-141l-104 158l-105 -158h-139l164 268h159z" />
    <glyph glyph-name="Udieresis" unicode="&#xdc;" horiz-adv-x="1157" 
d="M260 1425v-964q0 -129 94.5 -223.5t223 -94.5t223 94.5t94.5 223.5v964h158v-964q0 -197 -139 -336t-335.5 -139t-336.5 140t-140 335v964h158zM506 1778v-172h-172v172h172zM821 1778v-172h-172v172h172z" />
    <glyph glyph-name="Yacute" unicode="&#xdd;" horiz-adv-x="1005" 
d="M659 1841l-178 -268h-112l147 268h143zM582 0h-160v639l-395 786h166l309 -628l309 628h166l-395 -786v-639z" />
    <glyph glyph-name="Thorn" unicode="&#xde;" horiz-adv-x="1099" 
d="M575 1188q199 0 337.5 -138.5t138.5 -336t-139 -336.5t-337 -139h-317v-238h-158v1425h158v-237h317zM575 395q132 0 225 93t93 225.5t-92 224.5t-226 92h-317v-635h317z" />
    <glyph glyph-name="germandbls" unicode="&#xdf;" horiz-adv-x="929" 
d="M481 145q103 0 172.5 70.5t69.5 171.5v37q0 101 -70 172.5t-170 71.5h-145v145h117q100 0 169.5 73t69.5 169t-69 167.5t-168.5 71.5t-171.5 -70t-72 -169v-1055h-145v1055q0 160 112.5 272.5t273 112.5t273.5 -113t113 -281t-150 -296q180 -121 180 -326v-37
q0 -159 -112.5 -273t-272.5 -114q-84 0 -172 41l62 131q55 -27 106 -27z" />
    <glyph glyph-name="agrave" unicode="&#xe0;" horiz-adv-x="909" 
d="M590 1159h-113l-178 266h141zM686 633q0 97 -70.5 169t-157.5 72q-86 0 -146 -40.5t-89 -108.5l-135 55q49 113 144.5 176.5t194.5 63.5q179 0 291.5 -112.5t112.5 -274.5v-633h-147v125q-92 -125 -242 -125h-86q-123 0 -210 87t-87 210t87 210t210 87h330v39zM356 449
q-63 0 -107 -44.5t-44 -108t44 -107.5t107 -44h86q103 0 173.5 86t70.5 218h-330z" />
    <glyph glyph-name="aacute" unicode="&#xe1;" horiz-adv-x="909" 
d="M612 1425l-178 -266h-112l147 266h143zM686 633q0 97 -70.5 169t-157.5 72q-86 0 -146 -40.5t-89 -108.5l-135 55q49 113 144.5 176.5t194.5 63.5q179 0 291.5 -112.5t112.5 -274.5v-633h-147v125q-92 -125 -242 -125h-86q-123 0 -210 87t-87 210t87 210t210 87h330v39z
M356 449q-63 0 -107 -44.5t-44 -108t44 -107.5t107 -44h86q103 0 173.5 86t70.5 218h-330z" />
    <glyph glyph-name="acircumflex" unicode="&#xe2;" horiz-adv-x="909" 
d="M535 1425l165 -266h-141l-104 156l-105 -156h-139l164 266h160zM686 633q0 97 -70.5 169t-157.5 72q-86 0 -146 -40.5t-89 -108.5l-135 55q49 113 144.5 176.5t194.5 63.5q179 0 291.5 -112.5t112.5 -274.5v-633h-147v125q-92 -125 -242 -125h-86q-123 0 -210 87t-87 210
t87 210t210 87h330v39zM356 449q-63 0 -107 -44.5t-44 -108t44 -107.5t107 -44h86q103 0 173.5 86t70.5 218h-330z" />
    <glyph glyph-name="atilde" unicode="&#xe3;" horiz-adv-x="909" 
d="M346 1212q-51 0 -84 -61l-106 53q70 135 200 135q49 1 114 -31t89 -32q53 0 88 59l107 -51q-68 -135 -201 -135q-59 -1 -117 31q-57 32 -84 32h-6zM686 633q0 97 -70.5 169t-157.5 72q-86 0 -146 -40.5t-89 -108.5l-135 55q49 113 144.5 176.5t194.5 63.5
q179 0 291.5 -112.5t112.5 -274.5v-633h-147v125q-92 -125 -242 -125h-86q-123 0 -210 87t-87 210t87 210t210 87h330v39zM356 449q-63 0 -107 -44.5t-44 -108t44 -107.5t107 -44h86q103 0 173.5 86t70.5 218h-330z" />
    <glyph glyph-name="adieresis" unicode="&#xe4;" horiz-adv-x="909" 
d="M383 1362v-172h-172v172h172zM698 1362v-172h-172v172h172zM686 633q0 97 -70.5 169t-157.5 72q-86 0 -146 -40.5t-89 -108.5l-135 55q49 113 144.5 176.5t194.5 63.5q179 0 291.5 -112.5t112.5 -274.5v-633h-147v125q-92 -125 -242 -125h-86q-123 0 -210 87t-87 210
t87 210t210 87h330v39zM356 449q-63 0 -107 -44.5t-44 -108t44 -107.5t107 -44h86q103 0 173.5 86t70.5 218h-330z" />
    <glyph glyph-name="aring" unicode="&#xe5;" horiz-adv-x="909" 
d="M633 1305q0 -72 -52.5 -124.5t-126 -52.5t-126 53.5t-52.5 126.5t54 125t126.5 52t124.5 -54t52 -126zM456 1421q-46 0 -81 -32.5t-35 -80.5t34 -82t81 -34t80.5 34t33.5 81t-33.5 80.5t-79.5 33.5zM686 633q0 97 -70.5 169t-157.5 72q-86 0 -146 -40.5t-89 -108.5
l-135 55q49 113 144.5 176.5t194.5 63.5q179 0 291.5 -112.5t112.5 -274.5v-633h-147v125q-92 -125 -242 -125h-86q-123 0 -210 87t-87 210t87 210t210 87h330v39zM356 449q-63 0 -107 -44.5t-44 -108t44 -107.5t107 -44h86q103 0 173.5 86t70.5 218h-330z" />
    <glyph glyph-name="ae" unicode="&#xe6;" horiz-adv-x="1441" 
d="M406 1020q202 0 311 -154q53 72 131 113t159 41q156 0 264.5 -112.5t108.5 -272.5v-143h-596v-107q0 -98 68 -170t166 -72t170 76l100 -100q-119 -119 -274 -119q-190 0 -307 170q-57 -80 -135 -125t-160 -45h-62q-123 0 -210 87t-87 210t87 210t210 87h291v41
q0 137 -76.5 190.5t-146.5 53.5t-126 -40t-83 -108l-133 51q41 106 134.5 172t195.5 66zM350 451q-63 0 -108 -45.5t-45 -109.5t44 -108.5t109 -44.5h62q98 0 163.5 88t65.5 220h-291zM1011.5 877q-98.5 0 -161 -69t-66.5 -177h453q-2 109 -64.5 177.5t-161 68.5z" />
    <glyph glyph-name="ccedilla" unicode="&#xe7;" horiz-adv-x="890" 
d="M621 -202.5q0 -59.5 -44.5 -103.5t-103.5 -44h-104v88h104q23 0 41 18t18 42t-18 42.5t-41 18.5h-96l24 133q-143 16 -242.5 126t-99.5 259v256q0 159 114 273t275.5 114t270 -110t112.5 -277h-145q-4 104 -71.5 172.5t-167.5 68.5t-171 -72t-71 -169v-256
q0 -97 71 -169.5t171 -72.5q99 0 167 68.5t72 173.5h145q0 -149 -97 -259t-245 -126l-8 -45q59 -6 99.5 -48t40.5 -101.5z" />
    <glyph glyph-name="egrave" unicode="&#xe8;" horiz-adv-x="890" 
d="M580 1159h-113l-178 266h143zM61 377v256q0 159 114 273t272.5 114t272.5 -114t114 -273v-146h-627v-110q0 -96 69.5 -169t171.5 -73t175 78l102 -104q-111 -119 -274.5 -119t-276.5 114.5t-113 272.5zM688 627q0 101 -67.5 174t-171.5 73t-171 -69.5t-71 -177.5h481z
" />
    <glyph glyph-name="eacute" unicode="&#xe9;" horiz-adv-x="890" 
d="M604 1425l-178 -266h-113l148 266h143zM61 377v256q0 159 114 273t272.5 114t272.5 -114t114 -273v-146h-627v-110q0 -96 69.5 -169t171.5 -73t175 78l102 -104q-111 -119 -274.5 -119t-276.5 114.5t-113 272.5zM688 627q0 101 -67.5 174t-171.5 73t-171 -69.5
t-71 -177.5h481z" />
    <glyph glyph-name="ecircumflex" unicode="&#xea;" horiz-adv-x="909" 
d="M526 1425l164 -266h-139l-105 156l-104 -156h-141l166 266h159zM61 377v256q0 159 114 273t272.5 114t272.5 -114t114 -273v-146h-627v-110q0 -96 69.5 -169t171.5 -73t175 78l102 -104q-111 -119 -274.5 -119t-276.5 114.5t-113 272.5zM688 627q0 101 -67.5 174
t-171.5 73t-171 -69.5t-71 -177.5h481z" />
    <glyph glyph-name="edieresis" unicode="&#xeb;" horiz-adv-x="890" 
d="M375 1362v-172h-172v172h172zM690 1362v-172h-172v172h172zM61 377v256q0 159 114 273t272.5 114t272.5 -114t114 -273v-146h-627v-110q0 -96 69.5 -169t171.5 -73t175 78l102 -104q-111 -119 -274.5 -119t-276.5 114.5t-113 272.5zM688 627q0 101 -67.5 174t-171.5 73
t-171 -69.5t-71 -177.5h481z" />
    <glyph glyph-name="igrave" unicode="&#xec;" horiz-adv-x="342" 
d="M305 1159h-112l-179 266h144zM244 1010v-1010h-146v1010h146z" />
    <glyph glyph-name="iacute" unicode="&#xed;" horiz-adv-x="342" 
d="M328 1425l-178 -266h-113l147 266h144zM244 1010v-1010h-146v1010h146z" />
    <glyph glyph-name="icircumflex" unicode="&#xee;" horiz-adv-x="342" 
d="M250 1425l166 -266h-142l-102 156l-104 -156h-142l164 266h160zM244 1010v-1010h-146v1010h146z" />
    <glyph glyph-name="idieresis" unicode="&#xef;" horiz-adv-x="342" 
d="M100 1362v-172h-172v172h172zM416 1362v-172h-172v172h172zM244 1010v-1010h-146v1010h146z" />
    <glyph glyph-name="eth" unicode="&#xf0;" horiz-adv-x="890" 
d="M444 1440q131 0 234 -78l92 78l61 -72l-86 -74q86 -103 86 -239v-684q0 -157 -112.5 -271t-273 -114t-273.5 114.5t-113 270.5v200q0 159 112 273t258 114t259 -88v185q0 82 -51 147l-227 -192l-62 73l217 183q-59 33 -121 32q-135 0 -211 -122l-122 71q121 193 333 193z
M688 571q0 99 -71.5 170.5t-170 71.5t-170 -71.5t-71.5 -170.5v-200q0 -99 70.5 -169.5t169.5 -70.5t171 70t72 170v200z" />
    <glyph glyph-name="ntilde" unicode="&#xf1;" horiz-adv-x="948" 
d="M571 1149q-56 -1 -115 31t-83 32h-6q-29 0 -48.5 -13t-37.5 -48l-107 53q70 135 201 135q58 1 117 -31t86 -32q53 0 88 59l108 -51q-70 -135 -203 -135zM88 1010h145v-95q102 95 250 95t262.5 -113t114.5 -274v-623h-145v623q0 97 -70.5 169t-168.5 72t-170.5 -71
t-72.5 -170v-623h-145v1010z" />
    <glyph glyph-name="ograve" unicode="&#xf2;" horiz-adv-x="890" 
d="M580 1159h-113l-178 266h141zM831 377q0 -161 -111.5 -274t-273 -113t-274.5 114.5t-113 272.5v256q0 159 114 273t273.5 114t272 -112.5t112.5 -274.5v-256zM205 377q0 -97 71 -169.5t171 -72.5t169.5 73t69.5 169v256q0 96 -69 168.5t-170 72.5t-171.5 -72t-70.5 -169
v-256z" />
    <glyph glyph-name="oacute" unicode="&#xf3;" horiz-adv-x="890" 
d="M602 1425l-178 -266h-113l150 266h141zM831 377q0 -161 -111.5 -274t-273 -113t-274.5 114.5t-113 272.5v256q0 159 114 273t273.5 114t272 -112.5t112.5 -274.5v-256zM205 377q0 -97 71 -169.5t171 -72.5t169.5 73t69.5 169v256q0 96 -69 168.5t-170 72.5t-171.5 -72
t-70.5 -169v-256z" />
    <glyph glyph-name="ocircumflex" unicode="&#xf4;" horiz-adv-x="890" 
d="M524 1425l166 -266h-141l-105 156l-102 -156h-141l164 266h159zM831 377q0 -161 -111.5 -274t-273 -113t-274.5 114.5t-113 272.5v256q0 159 114 273t273.5 114t272 -112.5t112.5 -274.5v-256zM205 377q0 -97 71 -169.5t171 -72.5t169.5 73t69.5 169v256q0 96 -69 168.5
t-170 72.5t-171.5 -72t-70.5 -169v-256z" />
    <glyph glyph-name="otilde" unicode="&#xf5;" horiz-adv-x="890" 
d="M543 1149q-56 -1 -115 31q-60 32 -84 32h-6q-29 0 -48.5 -13t-37.5 -48l-107 53q70 135 201 135q58 1 117 -31t86 -32q53 0 88 59l108 -51q-70 -135 -202 -135zM831 377q0 -161 -111.5 -274t-273 -113t-274.5 114.5t-113 272.5v256q0 159 114 273t273.5 114t272 -112.5
t112.5 -274.5v-256zM205 377q0 -97 71 -169.5t171 -72.5t169.5 73t69.5 169v256q0 96 -69 168.5t-170 72.5t-171.5 -72t-70.5 -169v-256z" />
    <glyph glyph-name="odieresis" unicode="&#xf6;" horiz-adv-x="890" 
d="M375 1362v-172h-172v172h172zM688 1362v-172h-172v172h172zM831 377q0 -161 -111.5 -274t-273 -113t-274.5 114.5t-113 272.5v256q0 159 114 273t273.5 114t272 -112.5t112.5 -274.5v-256zM205 377q0 -97 71 -169.5t171 -72.5t169.5 73t69.5 169v256q0 96 -69 168.5
t-170 72.5t-171.5 -72t-70.5 -169v-256z" />
    <glyph glyph-name="divide" unicode="&#xf7;" 
d="M1016 791v-158h-950v158h950zM540 1180q46 0 77.5 -32t31.5 -79t-31.5 -79t-78.5 -32t-79 33t-32 79t33 78t79 32zM540 467q46 0 77.5 -33t31.5 -79t-31.5 -77.5t-78.5 -31.5t-79 32.5t-32 78.5t33 78t79 32z" />
    <glyph glyph-name="oslash" unicode="&#xf8;" horiz-adv-x="890" 
d="M831 633v-256q0 -161 -111.5 -274t-259.5 -113q-147 0 -261 88l-62 -88l-78 55l74 105q-74 106 -74 227v256q0 159 114 273t261 114t258 -88l62 88l77 -55l-73 -105q73 -99 73 -227zM205 633v-256q0 -49 20 -98l381 534q-72 61 -167 61t-164.5 -72.5t-69.5 -168.5z
M686 377v256q0 51 -20 98l-381 -532q72 -63 167 -63t164.5 72.5t69.5 168.5z" />
    <glyph glyph-name="ugrave" unicode="&#xf9;" horiz-adv-x="948" 
d="M608 1159h-112l-179 266h142zM860 0h-145v94q-102 -94 -251 -94t-262.5 114.5t-113.5 270.5v625h145v-625q0 -98 71 -169t168.5 -71t170 70.5t72.5 169.5v625h145v-1010z" />
    <glyph glyph-name="uacute" unicode="&#xfa;" horiz-adv-x="948" 
d="M631 1425l-178 -266h-113l149 266h142zM860 0h-145v94q-102 -94 -251 -94t-262.5 114.5t-113.5 270.5v625h145v-625q0 -98 71 -169t168.5 -71t170 70.5t72.5 169.5v625h145v-1010z" />
    <glyph glyph-name="ucircumflex" unicode="&#xfb;" horiz-adv-x="948" 
d="M555 1425l164 -266h-141l-105 156l-102 -156h-142l166 266h160zM860 0h-145v94q-102 -94 -251 -94t-262.5 114.5t-113.5 270.5v625h145v-625q0 -98 71 -169t168.5 -71t170 70.5t72.5 169.5v625h145v-1010z" />
    <glyph glyph-name="udieresis" unicode="&#xfc;" horiz-adv-x="948" 
d="M403 1362v-172h-172v172h172zM717 1362v-172h-172v172h172zM860 0h-145v94q-102 -94 -251 -94t-262.5 114.5t-113.5 270.5v625h145v-625q0 -98 71 -169t168.5 -71t170 70.5t72.5 169.5v625h145v-1010z" />
    <glyph glyph-name="yacute" unicode="&#xfd;" horiz-adv-x="909" 
d="M23 1010h145l287 -787l284 787h146l-445 -1225q-72 -193 -301 -201v146q135 6 172 102l70 193zM612 1425l-178 -266h-112l147 266h143z" />
    <glyph glyph-name="thorn" unicode="&#xfe;" horiz-adv-x="909" 
d="M223 1425v-514q104 99 252 99t262.5 -113t114.5 -272v-238q0 -162 -112 -274.5t-262 -112.5t-255 98v-514h-143v1841h143zM707 625q0 99 -71.5 169t-168.5 70q-98 0 -171 -69.5t-73 -169.5v-238q0 -98 72 -170t171.5 -72t170 72.5t70.5 169.5v238z" />
    <glyph glyph-name="ydieresis" unicode="&#xff;" horiz-adv-x="909" 
d="M23 1010h145l287 -787l284 787h146l-445 -1225q-72 -193 -301 -201v146q135 6 172 102l70 193zM383 1362v-172h-172v172h172zM698 1362v-172h-172v172h172z" />
    <glyph glyph-name="caron" unicode="&#x2c7;" horiz-adv-x="1060" 
d="M889 1178l106 -109l-356 -356l356 -357l-106 -108l-357 358l-356 -358l-108 108l356 357l-356 356l106 109l358 -359z" />
    <glyph glyph-name="ogonek" unicode="&#x2db;" horiz-adv-x="909" 
d="M23 1010h145l287 -787l284 787h146l-445 -1225q-72 -193 -301 -201v146q135 6 172 102l70 193zM612 1425l-178 -266h-112l147 266h143z" />
    <glyph glyph-name="hungarumlaut" unicode="&#x2dd;" horiz-adv-x="663" 
d="M631 0h-158l-436 1425h158z" />
    <glyph glyph-name="quoteleft" unicode="&#x2018;" horiz-adv-x="342" 
d="M256 1425v-172l-172 -172v344h172z" />
    <glyph glyph-name="quoteright" unicode="&#x2019;" horiz-adv-x="342" 
d="M256 1425v-172l-172 -172v344h172z" />
    <glyph glyph-name="quotedblleft" unicode="&#x201c;" horiz-adv-x="626" 
d="M256 1425v-172l-172 -172v344h172zM541 1425v-172l-172 -172v344h172z" />
    <glyph glyph-name="quotedblright" unicode="&#x201d;" horiz-adv-x="626" 
d="M256 1425v-172l-172 -172v344h172zM541 1425v-172l-172 -172v344h172z" />
    <glyph glyph-name="cAC" unicode="&#x20ac;" horiz-adv-x="1193" 
d="M338 801v-172h254l-33 -148h-221v-20q0 -130 96 -224t226 -94q129 0 218 89t93 229h159q0 -232 -156.5 -353.5t-332.5 -121.5t-318.5 140.5t-142.5 334.5v20h-157l30 148h127v172h-157l30 147h127v17q0 194 140.5 334.5t318.5 140.5t334.5 -120.5t156.5 -354.5h-159
q-4 139 -93 228t-220 89t-225.5 -92.5t-94.5 -224.5v-17h254l-33 -147h-221z" />
    <glyph glyph-name="minus" unicode="&#x2212;" 
d="M66 635v158h950v-158h-950z" />
    </font>
</defs>
</svg>
